# xmcd
#
# Track frame offsets: 
#        150
#        23423
#        50279
#        70830
#        89553
#        107747
#        123297
#        140204
#        158475
#        176761
#
# Disc length: 2613 seconds
#
# Revision: 3
# Processed by: cddbd v1.5.2PL0 Copyright (c) Steve Scherf et al.
# Submitted via: ExactAudioCopy v0.95b4
#
DISCID=800a330a
DTITLE=Final Frontier - Second Wave, the
DYEAR=2004
DGENRE=AOR
TTITLE0=the Second Wave
TTITLE1=Runaway
TTITLE2=Somebody's Got to Pay the Price
TTITLE3=After the Fall
TTITLE4=Lost Inside a Dream
TTITLE5=Sherry
TTITLE6=Faithful Heart
TTITLE7=Cinderella in Rags
TTITLE8=Lydia
TTITLE9=Can't Stop Falling in Love
EXTD=Submited by Robert Kaseder Germany
EXTT0=
EXTT1=
EXTT2=
EXTT3=
EXTT4=
EXTT5=
EXTT6=
EXTT7=
EXTT8=
EXTT9=
PLAYORDER=
